<svg id="Calque_1" data-name="Calque 1" xmlns="http://www.w3.org/2000/svg" viewBox="0 0 363.42 191.8"><defs><style>.cls-1,.cls-2,.cls-6,.cls-7{fill:none;}.cls-1,.cls-2{stroke:#b39f6b;}.cls-1,.cls-2,.cls-6{stroke-miterlimit:10;}.cls-1{stroke-width:2.83px;}.cls-3{font-size:39.69px;font-family:Lato-Bold, Lato Bold;font-weight:700;}.cls-16,.cls-3,.cls-9{fill:#1d1d1b;}.cls-4{fill:#a2173b;}.cls-5{fill:#b39f6b;}.cls-6{stroke:#a2173b;stroke-width:0.67px;}.cls-8{fill:#235344;}.cls-16,.cls-9{font-size:28.35px;}.cls-9{font-family:Lato-Black, Lato Black;font-weight:800;letter-spacing:0.07em;}.cls-10{letter-spacing:0.06em;}.cls-11{letter-spacing:0.08em;}.cls-12{letter-spacing:0.08em;}.cls-13{letter-spacing:0.03em;}.cls-14{letter-spacing:0.03em;}.cls-15{letter-spacing:0.07em;}.cls-16{font-family:Lato-Light, Lato Light;font-weight:300;}.cls-17{letter-spacing:0.01em;}.cls-18{letter-spacing:-0.01em;}.cls-19{letter-spacing:0em;}.cls-20{letter-spacing:0em;}</style></defs><path class="cls-1" d="M127.09,84.72A25.6,25.6,0,0,0,111.66,78a5.55,5.55,0,0,1-2.33-.47A5.61,5.61,0,0,1,107.77,76a24.08,24.08,0,0,0-13.12-8.37,35.22,35.22,0,0,1-6.46-1.67c-2.75-1.23-4.8-3.6-6.76-5.9l-6.2-7.27a14.75,14.75,0,0,1-2.15-3c-.69-1.46,0-3.77-1.29-4.66-2.71-1.78-3.55-4.11-5-6.37-3.07-4.76-5.11-10.07-9-14.16A18.78,18.78,0,0,1,56,22.47a16.38,16.38,0,0,1-1.71-3.7L50.38,8l.13,0"/><path class="cls-2" d="M54.33,32.68c2.45,5.2-.79,11.41.34,17,.67,3.4,2.91,6.37,3.42,9.81.29,2,0,4.08.87,5.88.56,1.19,1.57,2.12,2.12,3.31a9.78,9.78,0,0,1,.67,3l.81,7.06"/><path class="cls-2" d="M63.8,47c1.75,2.14,1,5.43,2.29,7.88,2,3.94,8.21,4.05,10.42,7.89.77,1.34.93,2.95,1.65,4.32a11.66,11.66,0,0,0,2.07,2.63l9.46,9.91"/><path class="cls-2" d="M112.42,80.45c-3.51-1.17-7.51-.6-10.81-2.27-2.36-1.2-4-3.4-6.27-4.84"/><text class="cls-3" transform="translate(13.35 48.77)">S</text><text class="cls-3" transform="translate(14.04 94.22)">S</text><text class="cls-3" transform="translate(9.68 141.07)">G</text><rect class="cls-4" x="50.24" y="140.98" width="77.73" height="14.45"/><rect class="cls-4" x="50.24" y="122.32" width="77.73" height="14.45"/><rect class="cls-5" x="50.24" y="103.65" width="77.73" height="14.45"/><rect class="cls-5" x="50.24" y="84.99" width="77.73" height="14.45"/><line class="cls-6" x1="348.08" y1="155.42" x2="13.36" y2="155.42"/><line class="cls-1" x1="50.41" y1="7.9" x2="11.55" y2="7.9"/><line class="cls-1" x1="50.99" y1="8.79" x2="49.56" y2="7.56"/><path class="cls-7" d="M144.89,16a29.3,29.3,0,0,1,7.6,3.25,50.07,50.07,0,0,1-13,5.3c-3,.76-9.51-2.14-7.16-5.9C134.35,15.46,141.76,15.32,144.89,16Z"/><path class="cls-8" d="M100.92,69.64c2.87-1.24,6-.25,8.76.76-1.37-.5-6.26,2.2-8.09,2.35C98,73,97.11,71.3,100.92,69.64Z"/><path class="cls-8" d="M120.3,71c-2.84-1.71-5.94-1-8.73-.27,1.37-.37,6.18,3.16,8,3.54C123.13,75,124.06,73.2,120.3,71Z"/><path class="cls-8" d="M122.9,62.94c-4.16.24-7.57,3.34-10.58,6.26,1.47-1.43,8.83-1.13,11.18-2.07C128.09,65.29,128.42,62.62,122.9,62.94Z"/><path class="cls-8" d="M104.18,61.8c4.46,2,5.4,5,6.07,7.86-.33-1.38-8.88-4.47-10.65-6C96.15,60.72,98.27,59.21,104.18,61.8Z"/><path class="cls-8" d="M111.11,58.71c2,4.43.69,7.35-.68,9.91.67-1.25-3.66-9.25-4-11.56C105.84,52.56,108.43,52.84,111.11,58.71Z"/><path class="cls-8" d="M117.28,58.53c-3.77,2.29-4.82,6.29-5.62,10,.39-1.8,7.56-5.31,9.12-7.19C123.83,57.63,122.27,55.5,117.28,58.53Z"/><polygon class="cls-8" points="110.89 69.74 110.12 72.49 109.82 76.16 110.43 78.92 114.25 79.68 112.11 76.78 111.35 74.02 110.89 69.74"/><text class="cls-9" transform="translate(14.03 186.46)">Uni<tspan class="cls-10" x="47.08" y="0">v</tspan><tspan x="62.56" y="0">ersi</tspan><tspan class="cls-11" x="112.39" y="0">t</tspan><tspan class="cls-12" x="124.16" y="0">y of</tspan><tspan class="cls-13" x="175.86" y="0"> </tspan><tspan class="cls-14" x="182.83" y="0">T</tspan><tspan class="cls-15" x="197.77" y="0">übingen </tspan></text><text class="cls-16" transform="translate(139.47 52.24)"><tspan class="cls-17">S</tspan><tspan x="14.14" y="0">oil </tspan><tspan class="cls-17" x="49.04" y="0">S</tspan><tspan x="63.18" y="0">cien</tspan><tspan class="cls-18" x="112.45" y="0">c</tspan><tspan x="124.98" y="0" xml:space="preserve">e  </tspan></text><text class="cls-16" transform="translate(145.72 94.25)">and</text><text class="cls-16" transform="translate(138.08 134.87)"><tspan class="cls-19">G</tspan><tspan x="18.45" y="0">eomo</tspan><tspan class="cls-20" x="87.42" y="0">r</tspan><tspan x="96.8" y="0">phology</tspan></text><line class="cls-1" x1="126.65" y1="86.21" x2="126.65" y2="83.8"/></svg>